<svg xmlns="http://www.w3.org/2000/svg" width="90.255" height="68.104" viewBox="0 0 90.255 68.104">
  <g id="Group_10938" data-name="Group 10938" transform="translate(-137.107 -249.02)">
    <path id="Path_371" data-name="Path 371" d="M213.58,292.18l-23.9,13.8L141.9,278.835h0l.007-.718a.713.713,0,0,0-.368.093l-4.068,2.348a.722.722,0,0,0,0,1.253l49.474,28.1a.721.721,0,0,0,.718,0l28.119-16.236a5.139,5.139,0,0,0-.712-.6C214.634,292.78,214.122,292.477,213.58,292.18Z" transform="translate(0 7.121)" fill="#470d2a"/>
    <path id="Path_372" data-name="Path 372" d="M209.094,271.6l.157.088a.722.722,0,0,1,0,1.253l-2.046,1.181v13.887l-3.247,1.875a13.711,13.711,0,0,1,1.911,1.477c.04.039.073.08.112.118l3.159-1.824c1.234-.127,1.858-3.162,1.858-9.028C211,274.684,210.36,271.651,209.094,271.6Z" transform="translate(16.36 5.525)" fill="#430926"/>
    <path id="Path_373" data-name="Path 373" d="M140.955,280.888l47.787,27.141,23.9-13.8c-2.493-1.37-5.67-2.667-5.67-2.667l6.936-4a32.8,32.8,0,0,1,5.477,2.778l3.247-1.875V274.577l-35.905,20.73a.721.721,0,0,1-.361.1.729.729,0,0,1-.357-.093l-45.041-25.581V280.17l-.007.718Z" transform="translate(0.942 5.068)" fill="#f8e8d2"/>
    <path id="Path_374" data-name="Path 374" d="M187.3,300.472a.721.721,0,0,0,.361-.1l35.905-20.73,2.046-1.181a.722.722,0,0,0,0-1.253l-.157-.088-49.317-28.009a.725.725,0,0,0-.718,0l-37.951,21.912a.721.721,0,0,0,0,1.252l4.432,2.517,45.041,25.581A.729.729,0,0,0,187.3,300.472Zm-15.93-26.43a13.781,13.781,0,0,0-1.73-.822c3.455-2.4,2.807-5.164-6.828-10.728l-.052-.031h0c9.685,5.584,14.461,5.951,18.566,3.942a10.369,10.369,0,0,0,1.39.97c3.642,2.1,8.43,1.7,14.731-1.962-6.3,3.662-6.973,6.439-3.33,8.544a13.659,13.659,0,0,0,1.675.8c-3.454,2.384-2.8,5.151,6.858,10.737h0c-9.663-5.586-14.445-5.958-18.59-3.947a10.056,10.056,0,0,0-1.424-1c-3.6-2.081-8.363-1.67-14.637,1.974h0C174.279,278.876,174.979,276.123,171.374,274.041Z" transform="translate(0 0)" fill="#470d2a"/>
    <path id="Path_375" data-name="Path 375" d="M162.96,279.879h0c6.273-3.645,11.032-4.055,14.637-1.974a10.057,10.057,0,0,1,1.424,1c4.145-2.011,8.927-1.639,18.59,3.947h0c-9.663-5.586-10.312-8.353-6.858-10.737a13.658,13.658,0,0,1-1.675-.8c-3.643-2.1-2.971-4.882,3.33-8.544-6.3,3.661-11.089,4.063-14.731,1.962a10.37,10.37,0,0,1-1.39-.97c-4.105,2.009-8.881,1.642-18.566-3.942h0l.052.031c9.635,5.564,10.284,8.326,6.828,10.728a13.781,13.781,0,0,1,1.73.822C169.935,273.48,169.235,276.233,162.96,279.879Z" transform="translate(5.044 2.643)" fill="#cebc7e"/>
    <path id="Path_376" data-name="Path 376" d="M206.4,286.833a32.8,32.8,0,0,0-5.477-2.778l-6.936,4s3.177,1.3,5.67,2.667c.543.3,1.054.6,1.492.894a5.139,5.139,0,0,1,.712.6c2.05,2.013,3.379,6.083,3.379,6.083l2.467-3.971h2.768a8,8,0,0,0-2.054-5.9c-.039-.039-.072-.08-.112-.118A13.711,13.711,0,0,0,206.4,286.833Z" transform="translate(13.92 8.574)" fill="#cebc7e"/>
  </g>
</svg>
