<svg xmlns="http://www.w3.org/2000/svg" width="17.168" height="20" viewBox="0 0 17.168 20">
  <path id="index" d="M11.05,0a.758.758,0,0,1,.127.011h.138a.757.757,0,0,1,.545.232l5.1,5.313a.755.755,0,0,1,.211.523v9.228A4.649,4.649,0,0,1,12.69,20H4.507A4.617,4.617,0,0,1,0,15.507V4.521A4.629,4.629,0,0,1,4.6.012h6.321A.758.758,0,0,1,11.05,0Zm-.755,1.521H4.6A3.108,3.108,0,0,0,1.512,4.539V15.307A3.108,3.108,0,0,0,4.541,18.49H12.66a3.141,3.141,0,0,0,3-3.177V7.031H13.635a3.354,3.354,0,0,1-3.34-3.348Zm.567,11.172a.755.755,0,1,1,0,1.51H5.425a.755.755,0,1,1,0-1.51ZM8.8,8.916a.755.755,0,0,1,0,1.51H5.424a.755.755,0,1,1,0-1.51Zm3-6.548V3.684a1.841,1.841,0,0,0,1.832,1.837h1.194Z" transform="translate(-0.001 0)" fill="white" fill-rule="evenodd"/>
</svg>
