<svg xmlns="http://www.w3.org/2000/svg" width="30" height="30" viewBox="0 0 30 30">
  <path id="star-_1259_" data-name="star-[#1259]" d="M149.881,2418.56c-2.691,1.11-2.7,1.11-4.372,1.8-.636,1.515-.12.285-1.98,4.71-3.883-1.62-2.953-1.23-4.721-1.98l-4.372,1.785c-1.1-2.685-1.105-2.7-1.789-4.365-1.514-.631-.284-.12-4.719-1.98,1.629-3.885,1.239-2.955,1.98-4.725-.308-.75-.234-.57-1.788-4.365,3.843-1.575,2.793-1.14,4.372-1.8.63-1.5.123-.285,1.98-4.71,3.884,1.62,2.953,1.23,4.721,1.98.75-.315.571-.24,4.372-1.785,1.567,3.825,1.482,3.615,1.789,4.365,1.513.63.284.12,4.719,1.98-1.77,4.215-1.3,3.09-1.98,4.725.308.75.234.57,1.788,4.365Zm4.119-10.7-6.34-2.655-2.452-6-6,2.445-6.34-2.655-2.66,6.345-6,2.445,2.452,6-2.66,6.345,6.341,2.655,2.452,6,6-2.445,6.341,2.655,2.66-6.345,6-2.445-2.452-6Z" transform="translate(-124 -2399)" fill="#cebc7e" fill-rule="evenodd"/>
</svg>
