<svg xmlns="http://www.w3.org/2000/svg" width="20" height="20" viewBox="0 0 20 20">
  <path id="Play" d="M10,0A10,10,0,1,1,0,10,10.011,10.011,0,0,1,10,0Zm0,1.463A8.537,8.537,0,1,0,18.537,10,8.546,8.546,0,0,0,10,1.463ZM9.591,6.6c.507.212,4.067,2.035,4.067,3.4,0,1.278-3.2,3.065-4.022,3.407a2.8,2.8,0,0,1-1.023.258.975.975,0,0,1-.717-.278c-.157-.155-.577-.57-.579-3.3,0-2.9.435-3.331.579-3.474C8.406,6.1,9.237,6.448,9.591,6.6Zm-.68,1.293a17.384,17.384,0,0,0,0,4.236A11.1,11.1,0,0,0,12.12,10,11.662,11.662,0,0,0,8.911,7.889Z" fill="#1a1a1a" fill-rule="evenodd"/>
</svg>
