<svg xmlns="http://www.w3.org/2000/svg" width="15.999" height="20" viewBox="0 0 15.999 20">
  <g id="Path_56" data-name="Path 56" transform="translate(0 0)" fill="none" stroke-linecap="round">
    <path d="M11.069,0c2.71,0,4.9,1.07,4.93,3.79h0V18.969a1.019,1.019,0,0,1-.74.99,1,1,0,0,1-.79-.1h0l-6.48-3.24L1.5,19.859a1.063,1.063,0,0,1-.49.13A1.016,1.016,0,0,1,0,18.969H0V3.79C0,1.07,2.2,0,4.9,0h6.17Z" stroke="none"/>
    <path d="M 4.899710655212402 1.500101089477539 C 3.790610313415527 1.500101089477539 2.861880302429199 1.717710494995117 2.28462028503418 2.112859725952148 C 1.947750091552734 2.343441009521484 1.499900817871094 2.768171310424805 1.499900817871094 3.789951324462891 L 1.499900817871094 18.18277168273926 L 7.990110397338867 14.94266033172607 L 14.49928092956543 18.19725036621094 L 14.49928092956543 3.799066543579102 C 14.48582935333252 2.772487640380859 14.03328990936279 2.34577751159668 13.69367980957031 2.113969802856445 C 13.1053409576416 1.712369918823242 12.19790077209473 1.500101089477539 11.06947040557861 1.500101089477539 L 4.899710655212402 1.500101089477539 M 4.899710655212402 0.0001010894775390625 L 11.06947040557861 0.0001010894775390625 C 13.77935981750488 0.0001010894775390625 15.96928024291992 1.070060729980469 15.99927997589111 3.789951324462891 L 15.99927997589111 18.9693603515625 C 15.99927997589111 19.13936042785645 15.95928001403809 19.30935096740723 15.87928009033203 19.45934104919434 C 15.74929046630859 19.6993408203125 15.52930068969727 19.87932968139648 15.25931072235107 19.95932006835938 C 14.9993200302124 20.03931999206543 14.70933055877686 19.99932098388672 14.46934032440186 19.85933113098145 L 7.989590644836426 16.61944961547852 L 1.49984073638916 19.85933113098145 C 1.350850105285645 19.93832969665527 1.179850578308105 19.98933029174805 1.009860038757324 19.98933029174805 C 0.4498805999755859 19.98933029174805 -9.918212890625e-05 19.52934074401855 -9.918212890625e-05 18.9693603515625 L -9.918212890625e-05 3.789951324462891 C -9.918212890625e-05 1.070060729980469 2.199810028076172 0.0001010894775390625 4.899710655212402 0.0001010894775390625 Z" stroke="none" fill="#2d2786"/>
  </g>
</svg>
