<svg version="1.2" xmlns="http://www.w3.org/2000/svg" viewBox="0 0 16 20" width="16" height="20">
	<title>Separators-svg</title>
	<style>
		.s0 { fill: none } 
		.s1 { fill: white } 
	</style>
	<g id="Path_56">
		<path id="Layer" class="s0" d="m11.1 0c2.7 0 4.9 1.1 4.9 3.8v15.2q0 0.1-0.1 0.3 0 0.2-0.1 0.3-0.1 0.1-0.2 0.2-0.2 0.1-0.3 0.2-0.1 0-0.2 0-0.1 0-0.2 0-0.1 0-0.2-0.1-0.1 0-0.2 0l-6.5-3.3-6.5 3.3q-0.1 0-0.1 0-0.1 0-0.1 0.1-0.1 0-0.2 0 0 0-0.1 0-0.2 0-0.4-0.1-0.2-0.1-0.3-0.2-0.1-0.2-0.2-0.3-0.1-0.2-0.1-0.4v-15.2c0-2.7 2.2-3.8 4.9-3.8 0 0 6.2 0 6.2 0z"/>
		<path id="Layer" fill-rule="evenodd" class="s1" d="m4.9 0h6.2c2.7 0 4.9 1.1 4.9 3.8v15.2q0 0.2-0.1 0.5-0.2 0.3-0.6 0.5c-0.3 0-0.6 0-0.8-0.1l-6.5-3.3-6.5 3.3q-0.2 0.1-0.5 0.1c-0.6 0-1-0.5-1-1v-15.2c0-2.7 2.2-3.8 4.9-3.8zm0 1.5c-1.1 0-2 0.2-2.6 0.6-0.4 0.2-0.8 0.7-0.8 1.7v14.4l6.5-3.3 6.5 3.3v-14.4c0-1-0.5-1.5-0.8-1.7-0.6-0.4-1.5-0.6-2.6-0.6z"/>
	</g>
</svg>